<svg xmlns="http://www.w3.org/2000/svg" width="197.51" height="14.061" viewBox="0 0 197.51 14.061"><g transform="translate(-10269.806 -753.443)"><path d="M10277.358,754.286a4.3,4.3,0,0,1,1.723.35,4.459,4.459,0,0,1,2.36,2.361,4.352,4.352,0,0,1,.116,3.115,4.662,4.662,0,0,1-.637,1.229,4.531,4.531,0,0,1-.97.978,4.62,4.62,0,0,1-1.212.656l3.3,3.7h-3.321l-2.711-3.268h-3.571v3.286h-2.37V754.322Zm-4.919,6.929h4.523a2.248,2.248,0,0,0,.951-.206,2.6,2.6,0,0,0,.781-.547,2.551,2.551,0,0,0,.709-1.76,2.2,2.2,0,0,0-.189-.907,2.278,2.278,0,0,0-.52-.735,2.592,2.592,0,0,0-.781-.5,2.431,2.431,0,0,0-.951-.188h-4.523Z" fill="none" stroke="red" stroke-miterlimit="10" stroke-width="0.528"/><path d="M10284.557,754.3h11.418v2.3h-9.155v2.764h8.976v2.083h-8.976v2.926h9.155v2.3h-11.418Z" fill="none" stroke="red" stroke-miterlimit="10" stroke-width="0.528"/><path d="M10306.2,754.322a4.31,4.31,0,0,1,1.724.349,4.444,4.444,0,0,1,1.409.959,4.587,4.587,0,0,1,.951,1.425,4.325,4.325,0,0,1,.35,1.73,4.538,4.538,0,0,1-.35,1.784,4.729,4.729,0,0,1-.951,1.461,4.424,4.424,0,0,1-1.409.986,4.2,4.2,0,0,1-1.724.358h-4.937v3.317h-2.368V754.322Zm-4.937,6.875,4.542-.018a2.275,2.275,0,0,0,.943-.2,2.675,2.675,0,0,0,.771-.52,2.345,2.345,0,0,0,.521-.763,2.32,2.32,0,0,0,.189-.925,2.37,2.37,0,0,0-.71-1.706,2.535,2.535,0,0,0-.771-.511,2.369,2.369,0,0,0-.943-.188l-4.542-.018Z" fill="none" stroke="red" stroke-miterlimit="10" stroke-width="0.528"/><path d="M10320.158,754.286a4.3,4.3,0,0,1,1.723.35,4.465,4.465,0,0,1,2.361,2.361,4.352,4.352,0,0,1,.116,3.115,4.694,4.694,0,0,1-.638,1.229,4.509,4.509,0,0,1-.97.978,4.63,4.63,0,0,1-1.211.656l3.3,3.7h-3.32l-2.712-3.268h-3.571v3.286h-2.37V754.322Zm-4.919,6.929h4.523a2.245,2.245,0,0,0,.951-.206,2.578,2.578,0,0,0,.781-.547,2.539,2.539,0,0,0,.709-1.76,2.213,2.213,0,0,0-.188-.907,2.281,2.281,0,0,0-.521-.735,2.568,2.568,0,0,0-.781-.5,2.427,2.427,0,0,0-.951-.188h-4.523Z" fill="none" stroke="red" stroke-miterlimit="10" stroke-width="0.528"/><path d="M10327.358,754.3h11.417v2.3h-9.155v2.764h8.976v2.083h-8.976v2.926h9.155v2.3h-11.417Z" fill="none" stroke="red" stroke-miterlimit="10" stroke-width="0.528"/><path d="M10352.127,758.4a3.165,3.165,0,0,0-.448-.808,2.571,2.571,0,0,0-.763-.655,4.261,4.261,0,0,0-1.149-.44,7.721,7.721,0,0,0-1.625-.18,13.278,13.278,0,0,0-1.327.072,7.058,7.058,0,0,0-1.3.252,2.932,2.932,0,0,0-1,.493,1.02,1.02,0,0,0-.413.781.8.8,0,0,0,.323.709,2.588,2.588,0,0,0,.935.413,7.646,7.646,0,0,0,1.382.207q.79.054,1.669.071,1.257.037,2.451.144a8.113,8.113,0,0,1,2.127.458,3.385,3.385,0,0,1,1.48,1.023,2.7,2.7,0,0,1,.513,1.84,3.93,3.93,0,0,1-.432,1.715,3.337,3.337,0,0,1-1.239,1.265,6.6,6.6,0,0,1-2.172.79,16.359,16.359,0,0,1-3.194.27,11.646,11.646,0,0,1-3.053-.342,6.568,6.568,0,0,1-2.063-.924,4.513,4.513,0,0,1-1.284-1.338,5.926,5.926,0,0,1-.673-1.562l2.316-.664a3.546,3.546,0,0,0,.367.871,2.627,2.627,0,0,0,.8.835,4.775,4.775,0,0,0,1.429.628,8.335,8.335,0,0,0,2.233.252,17.516,17.516,0,0,0,2.021-.1,5.829,5.829,0,0,0,1.374-.306,1.924,1.924,0,0,0,.789-.5,1.121,1.121,0,0,0,.27-.691,1.072,1.072,0,0,0-.243-.718,1.726,1.726,0,0,0-.673-.467,4.146,4.146,0,0,0-1.022-.261,12.1,12.1,0,0,0-1.293-.1l-1.795-.036a16.608,16.608,0,0,1-2.11-.171,7.118,7.118,0,0,1-1.893-.529,3.6,3.6,0,0,1-1.365-1.023,2.548,2.548,0,0,1-.521-1.652,2.8,2.8,0,0,1,.5-1.661,3.965,3.965,0,0,1,1.383-1.185,7.3,7.3,0,0,1,2.082-.709,13.925,13.925,0,0,1,2.639-.233,8.831,8.831,0,0,1,4.111.862,5.148,5.148,0,0,1,2.405,2.621Z" fill="none" stroke="red" stroke-miterlimit="10" stroke-width="0.528"/><path d="M10357.488,754.3h11.417v2.3h-9.155v2.764h8.976v2.083h-8.976v2.926h9.155v2.3h-11.417Z" fill="none" stroke="red" stroke-miterlimit="10" stroke-width="0.528"/><path d="M10374.341,754.537l-.09,12.136h-2.424l.018-12.351,5.045.018,6.122,12.064.018-12.082,2.514.018-.09,12.333h-4.991Z" fill="none" stroke="red" stroke-miterlimit="10" stroke-width="0.528"/><path d="M10399.717,754.358v2.082h-4.793v10.251h-2.352V756.44h-4.954v-2.082Z" fill="none" stroke="red" stroke-miterlimit="10" stroke-width="0.528"/><path d="M10409.725,762.849h-6.014l-1.436,3.842h-2.406l4.453-12.369h4.828l4.435,12.369h-2.424Zm-5.241-2.262h4.487l-2.189-6h-.09Z" fill="none" stroke="red" stroke-miterlimit="10" stroke-width="0.528"/><path d="M10425.732,754.358v2.082h-4.793v10.251h-2.353V756.44h-4.955v-2.082Z" fill="none" stroke="red" stroke-miterlimit="10" stroke-width="0.528"/><path d="M10430.132,766.691h-2.3l.018-12.459h2.334Z" fill="none" stroke="red" stroke-miterlimit="10" stroke-width="0.528"/><path d="M10432.761,760.551a6.164,6.164,0,0,1,.494-2.459,6.3,6.3,0,0,1,1.365-2.011,6.465,6.465,0,0,1,2.063-1.364,6.668,6.668,0,0,1,2.612-.5,6.845,6.845,0,0,1,2.647.5,6.436,6.436,0,0,1,2.083,1.364,6.291,6.291,0,0,1,1.363,2.011,6.164,6.164,0,0,1,.494,2.459,6.057,6.057,0,0,1-.494,2.433,6.241,6.241,0,0,1-3.446,3.357,6.953,6.953,0,0,1-2.647.493,6.722,6.722,0,0,1-2.594-.493,6.348,6.348,0,0,1-2.065-1.356,6.444,6.444,0,0,1-1.373-2A5.966,5.966,0,0,1,10432.761,760.551Zm2.1,0a3.537,3.537,0,0,0,.35,1.544,4.309,4.309,0,0,0,.951,1.3,4.586,4.586,0,0,0,1.41.9,4.684,4.684,0,0,0,3.464,0,4.455,4.455,0,0,0,1.4-.9,4.273,4.273,0,0,0,.935-1.3,3.706,3.706,0,0,0,0-3.1,4.274,4.274,0,0,0-.935-1.3,4.522,4.522,0,0,0-3.122-1.23,4.537,4.537,0,0,0-1.741.332,4.589,4.589,0,0,0-1.41.9,4.31,4.31,0,0,0-.951,1.3A3.573,3.573,0,0,0,10434.862,760.551Z" fill="none" stroke="red" stroke-miterlimit="10" stroke-width="0.528"/><path d="M10451,754.537l-.09,12.136h-2.424l.018-12.351,5.045.018,6.122,12.064.018-12.082,2.514.018-.09,12.333h-4.991Z" fill="none" stroke="red" stroke-miterlimit="10" stroke-width="0.528"/><path d="M10464.952,758.523h2.028v2.028h-2.028Zm.072,6.121h2.027v2.029h-2.027Z" fill="none" stroke="red" stroke-miterlimit="10" stroke-width="0.528"/></g></svg>